<?xml version="1.0" encoding="UTF-8" standalone="no"?>
<!DOCTYPE svg PUBLIC "-//W3C//DTD SVG 1.1//EN"
 "http://www.w3.org/Graphics/SVG/1.1/DTD/svg11.dtd">
<!-- Generated by graphviz version 2.26.3 (20100126.1600)
 -->
<!-- Title: AgroDependencies Pages: 1 -->
<svg width="460pt" height="342pt"
 viewBox="0.00 0.00 460.23 342.00" xmlns="http://www.w3.org/2000/svg" xmlns:xlink="http://www.w3.org/1999/xlink">
<g id="graph1" class="graph" transform="scale(1 1) rotate(0) translate(4 338)">
<title>AgroDependencies</title>
<polygon fill="white" stroke="white" points="-4,5 -4,-338 457.228,-338 457.228,5 -4,5"/>
<!-- Registration -->
<g id="node1" class="node"><title>Registration</title>
<ellipse fill="none" stroke="black" cx="210.228" cy="-93" rx="70.2092" ry="18.3848"/>
<text text-anchor="middle" x="210.228" y="-89.4" font-family="Times Roman,serif" font-size="14.00">Registration</text>
</g>
<!-- Mail -->
<g id="node3" class="node"><title>Mail</title>
<ellipse fill="none" stroke="black" cx="273.228" cy="-19" rx="31.1127" ry="18.3848"/>
<text text-anchor="middle" x="273.228" y="-15.4" font-family="Times Roman,serif" font-size="14.00">Mail</text>
</g>
<!-- Registration&#45;&gt;Mail -->
<g id="edge2" class="edge"><title>Registration&#45;&gt;Mail</title>
<path fill="none" stroke="black" stroke-dasharray="1,5" d="M225.801,-74.7079C233.851,-65.2518 243.785,-53.5834 252.478,-43.3728"/>
<polygon fill="black" stroke="black" points="255.306,-45.4499 259.123,-35.5667 249.976,-40.9122 255.306,-45.4499"/>
</g>
<!-- Image -->
<g id="node4" class="node"><title>Image</title>
<ellipse fill="none" stroke="black" cx="210.228" cy="-167" rx="41.2167" ry="18.3848"/>
<text text-anchor="middle" x="210.228" y="-163.4" font-family="Times Roman,serif" font-size="14.00">Image</text>
</g>
<!-- Image&#45;&gt;Registration -->
<g id="edge4" class="edge"><title>Image&#45;&gt;Registration</title>
<path fill="none" stroke="black" d="M210.228,-148.327C210.228,-140.264 210.228,-130.648 210.228,-121.711"/>
<polygon fill="black" stroke="black" points="213.728,-121.667 210.228,-111.667 206.728,-121.667 213.728,-121.667"/>
</g>
<!-- Social -->
<g id="node6" class="node"><title>Social</title>
<ellipse fill="none" stroke="black" cx="269.228" cy="-241" rx="39.0967" ry="18.3848"/>
<text text-anchor="middle" x="269.228" y="-237.4" font-family="Times Roman,serif" font-size="14.00">Social</text>
</g>
<!-- Social&#45;&gt;Registration -->
<g id="edge8" class="edge"><title>Social&#45;&gt;Registration</title>
<path fill="none" stroke="black" d="M270.785,-222.309C271.65,-202.885 270.874,-172.025 260.228,-148 255.335,-136.959 247.337,-126.64 239.159,-117.991"/>
<polygon fill="black" stroke="black" points="241.549,-115.431 231.999,-110.844 236.603,-120.386 241.549,-115.431"/>
</g>
<!-- Social&#45;&gt;Image -->
<g id="edge6" class="edge"><title>Social&#45;&gt;Image</title>
<path fill="none" stroke="black" stroke-dasharray="1,5" d="M255.245,-223.463C247.824,-214.155 238.571,-202.55 230.388,-192.286"/>
<polygon fill="black" stroke="black" points="233.08,-190.048 224.109,-184.411 227.607,-194.412 233.08,-190.048"/>
</g>
<!-- Search -->
<g id="node10" class="node"><title>Search</title>
<ellipse fill="none" stroke="black" cx="68.2276" cy="-167" rx="44.7575" ry="18.3848"/>
<text text-anchor="middle" x="68.2276" y="-163.4" font-family="Times Roman,serif" font-size="14.00">Search</text>
</g>
<!-- Social&#45;&gt;Search -->
<g id="edge10" class="edge"><title>Social&#45;&gt;Search</title>
<path fill="none" stroke="black" stroke-dasharray="1,5" d="M238.262,-229.6C204.397,-217.132 149.873,-197.058 111.723,-183.013"/>
<polygon fill="black" stroke="black" points="112.507,-179.572 101.914,-179.402 110.089,-186.141 112.507,-179.572"/>
</g>
<!-- Discover -->
<g id="node11" class="node"><title>Discover</title>
<ellipse fill="none" stroke="black" cx="121.228" cy="-241" rx="53.2379" ry="18.3848"/>
<text text-anchor="middle" x="121.228" y="-237.4" font-family="Times Roman,serif" font-size="14.00">Discover</text>
</g>
<!-- Discover&#45;&gt;Registration -->
<g id="edge14" class="edge"><title>Discover&#45;&gt;Registration</title>
<path fill="none" stroke="black" d="M126.975,-222.266C133.415,-202.807 144.983,-171.918 160.228,-148 166.88,-137.563 175.565,-127.227 183.827,-118.381"/>
<polygon fill="black" stroke="black" points="186.496,-120.655 190.916,-111.026 181.456,-115.797 186.496,-120.655"/>
</g>
<!-- Discover&#45;&gt;Image -->
<g id="edge12" class="edge"><title>Discover&#45;&gt;Image</title>
<path fill="none" stroke="black" stroke-dasharray="1,5" d="M141.87,-223.837C154.032,-213.725 169.569,-200.806 182.757,-189.841"/>
<polygon fill="black" stroke="black" points="185.162,-192.393 190.614,-183.308 180.687,-187.01 185.162,-192.393"/>
</g>
<!-- Discover&#45;&gt;Search -->
<g id="edge16" class="edge"><title>Discover&#45;&gt;Search</title>
<path fill="none" stroke="black" stroke-dasharray="1,5" d="M108.126,-222.708C101.725,-213.77 93.9081,-202.856 86.8952,-193.064"/>
<polygon fill="black" stroke="black" points="89.6634,-190.918 80.9951,-184.826 83.9725,-194.994 89.6634,-190.918"/>
</g>
<!-- Rendering -->
<g id="node15" class="node"><title>Rendering</title>
<ellipse fill="none" stroke="black" cx="202.228" cy="-315" rx="60.8112" ry="18.3848"/>
<text text-anchor="middle" x="202.228" y="-311.4" font-family="Times Roman,serif" font-size="14.00">Rendering</text>
</g>
<!-- Rendering&#45;&gt;Registration -->
<g id="edge26" class="edge"><title>Rendering&#45;&gt;Registration</title>
<path fill="none" stroke="black" stroke-dasharray="1,5" d="M147.017,-306.908C114.245,-299.571 73.8379,-285.763 46.2276,-260 8.37663,-224.681 -17.0454,-189.257 14.2276,-148 29.5572,-127.777 89.3652,-112.935 138.926,-103.801"/>
<polygon fill="black" stroke="black" points="139.78,-107.204 149.006,-101.995 138.545,-100.314 139.78,-107.204"/>
</g>
<!-- Rendering&#45;&gt;Mail -->
<g id="edge30" class="edge"><title>Rendering&#45;&gt;Mail</title>
<path fill="none" stroke="black" stroke-dasharray="1,5" d="M252.231,-304.245C276.259,-296.293 302.891,-282.749 317.228,-260 360.188,-191.832 315.468,-92.5741 289.313,-45.5732"/>
<polygon fill="black" stroke="black" points="292.204,-43.5787 284.206,-36.6304 286.126,-47.0499 292.204,-43.5787"/>
</g>
<!-- Rendering&#45;&gt;Image -->
<g id="edge22" class="edge"><title>Rendering&#45;&gt;Image</title>
<path fill="none" stroke="black" stroke-dasharray="1,5" d="M203.241,-296.256C204.611,-270.901 207.069,-225.439 208.674,-195.75"/>
<polygon fill="black" stroke="black" points="212.178,-195.766 209.223,-185.592 205.188,-195.389 212.178,-195.766"/>
</g>
<!-- Rendering&#45;&gt;Social -->
<g id="edge18" class="edge"><title>Rendering&#45;&gt;Social</title>
<path fill="none" stroke="black" stroke-dasharray="1,5" d="M218.446,-297.087C226.964,-287.679 237.535,-276.004 246.822,-265.746"/>
<polygon fill="black" stroke="black" points="249.502,-268.001 253.619,-258.239 244.313,-263.303 249.502,-268.001"/>
</g>
<!-- Rendering&#45;&gt;Search -->
<g id="edge28" class="edge"><title>Rendering&#45;&gt;Search</title>
<path fill="none" stroke="black" stroke-dasharray="1,5" d="M155.16,-303.083C117.99,-292.608 70.5594,-276.499 59.2276,-260 46.3241,-241.212 50.2962,-215.032 56.5064,-195.234"/>
<polygon fill="black" stroke="black" points="59.9002,-196.131 59.8804,-185.536 53.2889,-193.831 59.9002,-196.131"/>
</g>
<!-- Rendering&#45;&gt;Discover -->
<g id="edge20" class="edge"><title>Rendering&#45;&gt;Discover</title>
<path fill="none" stroke="black" stroke-dasharray="1,5" d="M182.62,-297.087C172.196,-287.564 159.23,-275.719 147.904,-265.371"/>
<polygon fill="black" stroke="black" points="150.119,-262.654 140.375,-258.493 145.398,-267.822 150.119,-262.654"/>
</g>
<!-- Geoloc -->
<g id="node20" class="node"><title>Geoloc</title>
<ellipse fill="none" stroke="black" cx="408.228" cy="-241" rx="44.0472" ry="18.3848"/>
<text text-anchor="middle" x="408.228" y="-237.4" font-family="Times Roman,serif" font-size="14.00">Geoloc</text>
</g>
<!-- Rendering&#45;&gt;Geoloc -->
<g id="edge24" class="edge"><title>Rendering&#45;&gt;Geoloc</title>
<path fill="none" stroke="black" stroke-dasharray="1,5" d="M241.946,-300.732C277.213,-288.063 328.64,-269.59 364.945,-256.548"/>
<polygon fill="black" stroke="black" points="366.53,-259.698 374.758,-253.023 364.163,-253.11 366.53,-259.698"/>
</g>
</g>
</svg>
