<?xml version="1.0" encoding="UTF-8" standalone="no"?>
<!DOCTYPE svg PUBLIC "-//W3C//DTD SVG 1.1//EN"
 "http://www.w3.org/Graphics/SVG/1.1/DTD/svg11.dtd">
<!-- Generated by graphviz version 2.26.3 (20100126.1600)
 -->
<!-- Title: AgroDependencies Pages: 1 -->
<svg width="1079pt" height="416pt"
 viewBox="0.00 0.00 1078.70 416.00" xmlns="http://www.w3.org/2000/svg" xmlns:xlink="http://www.w3.org/1999/xlink">
<g id="graph1" class="graph" transform="scale(1 1) rotate(0) translate(4 412)">
<title>AgroDependencies</title>
<polygon fill="white" stroke="white" points="-4,5 -4,-412 1075.7,-412 1075.7,5 -4,5"/>
<!-- Mail -->
<g id="node1" class="node"><title>Mail</title>
<ellipse fill="none" stroke="black" cx="351" cy="-93" rx="31.1127" ry="18.3848"/>
<text text-anchor="middle" x="351" y="-89.4" font-family="Times Roman,serif" font-size="14.00">Mail</text>
</g>
<!-- utils -->
<g id="node3" class="node"><title>utils</title>
<ellipse fill="none" stroke="black" cx="321" cy="-19" rx="32.0265" ry="18.3848"/>
<text text-anchor="middle" x="321" y="-15.4" font-family="Times Roman,serif" font-size="14.00">utils</text>
</g>
<!-- Mail&#45;&gt;utils -->
<g id="edge2" class="edge"><title>Mail&#45;&gt;utils</title>
<path fill="none" stroke="black" d="M343.584,-74.7079C340.133,-66.1947 335.955,-55.8885 332.135,-46.4671"/>
<polygon fill="black" stroke="black" points="335.331,-45.0341 328.33,-37.0817 328.844,-47.6641 335.331,-45.0341"/>
</g>
<!-- jsonrpc&#45;server -->
<g id="node5" class="node"><title>jsonrpc&#45;server</title>
<ellipse fill="none" stroke="black" cx="593" cy="-19" rx="80.1095" ry="18.3848"/>
<text text-anchor="middle" x="593" y="-15.4" font-family="Times Roman,serif" font-size="14.00">jsonrpc&#45;server</text>
</g>
<!-- Mail&#45;&gt;jsonrpc&#45;server -->
<g id="edge4" class="edge"><title>Mail&#45;&gt;jsonrpc&#45;server</title>
<path fill="none" stroke="black" d="M374.816,-80.8405C380.072,-78.3966 385.665,-75.9756 391,-74 434.833,-57.7688 485.603,-43.9655 525.278,-34.2469"/>
<polygon fill="black" stroke="black" points="526.22,-37.6201 535.116,-31.8651 524.573,-30.8167 526.22,-37.6201"/>
</g>
<!-- Mail&#45;lib -->
<g id="node6" class="node"><title>Mail&#45;lib</title>
<ellipse fill="none" stroke="black" cx="112" cy="-93" rx="45.9619" ry="18.3848"/>
<text text-anchor="middle" x="112" y="-89.4" font-family="Times Roman,serif" font-size="14.00">Mail&#45;lib</text>
</g>
<!-- Mail&#45;lib&#45;&gt;utils -->
<g id="edge6" class="edge"><title>Mail&#45;lib&#45;&gt;utils</title>
<path fill="none" stroke="black" d="M146.982,-80.6141C184.851,-67.2059 245.01,-45.9054 283.744,-32.191"/>
<polygon fill="black" stroke="black" points="285.325,-35.3442 293.584,-28.7072 282.989,-28.7456 285.325,-35.3442"/>
</g>
<!-- Registration -->
<g id="node8" class="node"><title>Registration</title>
<ellipse fill="none" stroke="black" cx="436" cy="-167" rx="70.2092" ry="18.3848"/>
<text text-anchor="middle" x="436" y="-163.4" font-family="Times Roman,serif" font-size="14.00">Registration</text>
</g>
<!-- Registration&#45;&gt;Mail -->
<g id="edge8" class="edge"><title>Registration&#45;&gt;Mail</title>
<path fill="none" stroke="black" stroke-dasharray="1,5" d="M415.424,-149.087C403.736,-138.911 389.001,-126.083 376.574,-115.264"/>
<polygon fill="black" stroke="black" points="378.637,-112.42 368.796,-108.493 374.04,-117.699 378.637,-112.42"/>
</g>
<!-- Registration&#45;&gt;utils -->
<g id="edge12" class="edge"><title>Registration&#45;&gt;utils</title>
<path fill="none" stroke="black" d="M378.546,-156.41C353.337,-148.601 326.094,-135.132 311,-112 298.456,-92.7755 302.814,-66.4255 309.233,-46.6809"/>
<polygon fill="black" stroke="black" points="312.613,-47.625 312.699,-37.0306 306.025,-45.2589 312.613,-47.625"/>
</g>
<!-- Registration&#45;&gt;jsonrpc&#45;server -->
<g id="edge14" class="edge"><title>Registration&#45;&gt;jsonrpc&#45;server</title>
<path fill="none" stroke="black" d="M454.938,-149.148C482.606,-123.066 534.223,-74.4079 565.904,-44.5426"/>
<polygon fill="black" stroke="black" points="568.627,-46.7861 573.502,-37.3798 563.825,-41.6925 568.627,-46.7861"/>
</g>
<!-- Registration&#45;&gt;Mail&#45;lib -->
<g id="edge10" class="edge"><title>Registration&#45;&gt;Mail&#45;lib</title>
<path fill="none" stroke="black" d="M376.437,-157.133C321.575,-147.501 238.149,-131.473 167,-112 163.376,-111.008 159.645,-109.904 155.914,-108.74"/>
<polygon fill="black" stroke="black" points="156.702,-105.316 146.11,-105.559 154.542,-111.975 156.702,-105.316"/>
</g>
<!-- jsonrpc&#45;client -->
<g id="node14" class="node"><title>jsonrpc&#45;client</title>
<ellipse fill="none" stroke="black" cx="724" cy="-93" rx="75.8684" ry="18.3848"/>
<text text-anchor="middle" x="724" y="-89.4" font-family="Times Roman,serif" font-size="14.00">jsonrpc&#45;client</text>
</g>
<!-- Registration&#45;&gt;jsonrpc&#45;client -->
<g id="edge16" class="edge"><title>Registration&#45;&gt;jsonrpc&#45;client</title>
<path fill="none" stroke="black" d="M486.495,-154.026C535.296,-141.486 609.339,-122.462 661.761,-108.992"/>
<polygon fill="black" stroke="black" points="662.8,-112.339 671.614,-106.46 661.058,-105.559 662.8,-112.339"/>
</g>
<!-- sha2 -->
<g id="node16" class="node"><title>sha2</title>
<ellipse fill="none" stroke="black" cx="435" cy="-93" rx="34.8574" ry="18.3848"/>
<text text-anchor="middle" x="435" y="-89.4" font-family="Times Roman,serif" font-size="14.00">sha2</text>
</g>
<!-- Registration&#45;&gt;sha2 -->
<g id="edge18" class="edge"><title>Registration&#45;&gt;sha2</title>
<path fill="none" stroke="black" d="M435.748,-148.327C435.639,-140.264 435.509,-130.648 435.388,-121.711"/>
<polygon fill="black" stroke="black" points="438.887,-121.619 435.252,-111.667 431.888,-121.714 438.887,-121.619"/>
</g>
<!-- Image -->
<g id="node17" class="node"><title>Image</title>
<ellipse fill="none" stroke="black" cx="541" cy="-241" rx="41.2167" ry="18.3848"/>
<text text-anchor="middle" x="541" y="-237.4" font-family="Times Roman,serif" font-size="14.00">Image</text>
</g>
<!-- Image&#45;&gt;utils -->
<g id="edge26" class="edge"><title>Image&#45;&gt;utils</title>
<path fill="none" stroke="black" d="M539.635,-222.302C536.068,-187.659 523.386,-113.443 479,-74 446.338,-44.9756 397.502,-31.0703 362.78,-24.5377"/>
<polygon fill="black" stroke="black" points="362.944,-21.0134 352.49,-22.7384 361.738,-27.9087 362.944,-21.0134"/>
</g>
<!-- Image&#45;&gt;jsonrpc&#45;server -->
<g id="edge22" class="edge"><title>Image&#45;&gt;jsonrpc&#45;server</title>
<path fill="none" stroke="black" d="M545.344,-222.454C554.425,-183.686 575.47,-93.8416 586.298,-47.6132"/>
<polygon fill="black" stroke="black" points="589.759,-48.1838 588.632,-37.6491 582.943,-46.5873 589.759,-48.1838"/>
</g>
<!-- Image&#45;&gt;Registration -->
<g id="edge20" class="edge"><title>Image&#45;&gt;Registration</title>
<path fill="none" stroke="black" d="M518.732,-225.307C504.409,-215.212 485.531,-201.907 469.425,-190.556"/>
<polygon fill="black" stroke="black" points="470.999,-187.384 460.809,-184.484 466.966,-193.106 470.999,-187.384"/>
</g>
<!-- Image&#45;&gt;jsonrpc&#45;client -->
<g id="edge24" class="edge"><title>Image&#45;&gt;jsonrpc&#45;client</title>
<path fill="none" stroke="black" d="M561.283,-224.596C593.467,-198.567 656.415,-147.659 693.881,-117.359"/>
<polygon fill="black" stroke="black" points="696.346,-119.867 701.92,-110.857 691.944,-114.424 696.346,-119.867"/>
</g>
<!-- Social -->
<g id="node22" class="node"><title>Social</title>
<ellipse fill="none" stroke="black" cx="575" cy="-315" rx="39.0967" ry="18.3848"/>
<text text-anchor="middle" x="575" y="-311.4" font-family="Times Roman,serif" font-size="14.00">Social</text>
</g>
<!-- Social&#45;&gt;utils -->
<g id="edge38" class="edge"><title>Social&#45;&gt;utils</title>
<path fill="none" stroke="black" d="M539.846,-306.659C432.822,-280.487 114.765,-196.68 57,-112 47.4826,-98.0481 46.345,-87.1036 57,-74 84.476,-40.2099 211.45,-26.4846 278.791,-21.5067"/>
<polygon fill="black" stroke="black" points="279.334,-24.9772 289.062,-20.7812 278.84,-17.9946 279.334,-24.9772"/>
</g>
<!-- Social&#45;&gt;jsonrpc&#45;server -->
<g id="edge34" class="edge"><title>Social&#45;&gt;jsonrpc&#45;server</title>
<path fill="none" stroke="black" d="M581.697,-296.696C585.214,-286.129 589.166,-272.496 591,-260 602.163,-183.923 598.33,-92.882 595.278,-47.5627"/>
<polygon fill="black" stroke="black" points="598.769,-47.3023 594.568,-37.576 591.786,-47.7993 598.769,-47.3023"/>
</g>
<!-- Social&#45;&gt;Registration -->
<g id="edge30" class="edge"><title>Social&#45;&gt;Registration</title>
<path fill="none" stroke="black" d="M548.116,-301.589C530.394,-291.805 507.497,-277.267 491,-260 472.626,-240.768 457.733,-214.309 448.101,-194.529"/>
<polygon fill="black" stroke="black" points="451.235,-192.968 443.804,-185.416 444.904,-195.954 451.235,-192.968"/>
</g>
<!-- Social&#45;&gt;jsonrpc&#45;client -->
<g id="edge36" class="edge"><title>Social&#45;&gt;jsonrpc&#45;client</title>
<path fill="none" stroke="black" d="M591.772,-297.881C601.674,-287.371 614.156,-273.398 624,-260 658.293,-213.326 691.489,-154.297 709.687,-120.375"/>
<polygon fill="black" stroke="black" points="712.8,-121.976 714.411,-111.504 706.621,-118.686 712.8,-121.976"/>
</g>
<!-- Social&#45;&gt;Image -->
<g id="edge28" class="edge"><title>Social&#45;&gt;Image</title>
<path fill="none" stroke="black" d="M566.596,-296.708C562.713,-288.258 558.019,-278.042 553.717,-268.678"/>
<polygon fill="black" stroke="black" points="556.781,-266.964 549.426,-259.338 550.42,-269.886 556.781,-266.964"/>
</g>
<!-- Search -->
<g id="node26" class="node"><title>Search</title>
<ellipse fill="none" stroke="black" cx="1011" cy="-241" rx="44.7575" ry="18.3848"/>
<text text-anchor="middle" x="1011" y="-237.4" font-family="Times Roman,serif" font-size="14.00">Search</text>
</g>
<!-- Social&#45;&gt;Search -->
<g id="edge32" class="edge"><title>Social&#45;&gt;Search</title>
<path fill="none" stroke="black" d="M611.797,-308.755C689.486,-295.569 870.405,-264.863 959.522,-249.737"/>
<polygon fill="black" stroke="black" points="960.132,-253.184 969.405,-248.06 958.96,-246.282 960.132,-253.184"/>
</g>
<!-- Search&#45;lib -->
<g id="node31" class="node"><title>Search&#45;lib</title>
<ellipse fill="none" stroke="black" cx="850" cy="-167" rx="60.1041" ry="18.3848"/>
<text text-anchor="middle" x="850" y="-163.4" font-family="Times Roman,serif" font-size="14.00">Search&#45;lib</text>
</g>
<!-- Social&#45;&gt;Search&#45;lib -->
<g id="edge40" class="edge"><title>Social&#45;&gt;Search&#45;lib</title>
<path fill="none" stroke="black" d="M605.105,-303.148C630.776,-292.714 668.429,-276.628 700,-260 741.454,-238.168 786.901,-209.238 816.782,-189.477"/>
<polygon fill="black" stroke="black" points="818.768,-192.36 825.158,-183.909 814.892,-186.531 818.768,-192.36"/>
</g>
<!-- Search&#45;&gt;utils -->
<g id="edge64" class="edge"><title>Search&#45;&gt;utils</title>
<path fill="none" stroke="black" d="M1010.6,-222.485C1008.74,-187.125 999.161,-110.277 952,-74 912.418,-43.5524 553.728,-42.5789 504,-38 455.655,-33.5484 400.206,-27.6851 363.133,-23.6556"/>
<polygon fill="black" stroke="black" points="363.036,-20.1244 352.715,-22.5191 362.277,-27.0831 363.036,-20.1244"/>
</g>
<!-- Search&#45;&gt;jsonrpc&#45;server -->
<g id="edge60" class="edge"><title>Search&#45;&gt;jsonrpc&#45;server</title>
<path fill="none" stroke="black" d="M1021.4,-222.777C1031.23,-202.906 1042.48,-170.889 1028,-148 989.785,-87.5765 787.056,-47.9834 672.33,-30.06"/>
<polygon fill="black" stroke="black" points="672.606,-26.5613 662.189,-28.4964 671.539,-33.4796 672.606,-26.5613"/>
</g>
<!-- Search&#45;&gt;jsonrpc&#45;client -->
<g id="edge62" class="edge"><title>Search&#45;&gt;jsonrpc&#45;client</title>
<path fill="none" stroke="black" d="M998.087,-223.206C981.914,-202.189 952.256,-167.613 919,-148 882.426,-126.43 836.987,-112.973 799.174,-104.774"/>
<polygon fill="black" stroke="black" points="799.736,-101.316 789.232,-102.7 798.307,-108.168 799.736,-101.316"/>
</g>
<!-- Search&#45;lib&#45;&gt;utils -->
<g id="edge70" class="edge"><title>Search&#45;lib&#45;&gt;utils</title>
<path fill="none" stroke="black" d="M847.338,-148.197C843.199,-126.535 833.027,-91.6624 809,-74 804.499,-70.6912 480.015,-35.9078 362.719,-23.4267"/>
<polygon fill="black" stroke="black" points="362.994,-19.9362 352.679,-22.359 362.253,-26.897 362.994,-19.9362"/>
</g>
<!-- Search&#45;lib&#45;&gt;jsonrpc&#45;server -->
<g id="edge66" class="edge"><title>Search&#45;lib&#45;&gt;jsonrpc&#45;server</title>
<path fill="none" stroke="black" d="M857.113,-148.323C863.612,-127.751 869.886,-94.8317 853,-74 831.307,-47.2381 746.45,-32.9831 679.502,-25.7501"/>
<polygon fill="black" stroke="black" points="679.653,-22.247 669.344,-24.691 678.927,-29.2093 679.653,-22.247"/>
</g>
<!-- Search&#45;lib&#45;&gt;jsonrpc&#45;client -->
<g id="edge68" class="edge"><title>Search&#45;lib&#45;&gt;jsonrpc&#45;client</title>
<path fill="none" stroke="black" d="M822.037,-150.577C804.386,-140.211 781.357,-126.686 762.053,-115.349"/>
<polygon fill="black" stroke="black" points="763.594,-112.195 753.199,-110.149 760.049,-118.231 763.594,-112.195"/>
</g>
<!-- Discover -->
<g id="node32" class="node"><title>Discover</title>
<ellipse fill="none" stroke="black" cx="845" cy="-315" rx="53.2379" ry="18.3848"/>
<text text-anchor="middle" x="845" y="-311.4" font-family="Times Roman,serif" font-size="14.00">Discover</text>
</g>
<!-- Discover&#45;&gt;utils -->
<g id="edge52" class="edge"><title>Discover&#45;&gt;utils</title>
<path fill="none" stroke="black" d="M859.353,-297.134C877.404,-273.405 907.433,-229.411 919,-186 934.952,-126.132 892.641,-99.1086 836,-74 833.289,-72.7981 484.867,-36.1803 362.724,-23.3718"/>
<polygon fill="black" stroke="black" points="362.946,-19.8759 352.635,-22.314 362.216,-26.8377 362.946,-19.8759"/>
</g>
<!-- Discover&#45;&gt;jsonrpc&#45;server -->
<g id="edge48" class="edge"><title>Discover&#45;&gt;jsonrpc&#45;server</title>
<path fill="none" stroke="black" d="M895.83,-309.48C954.148,-301.976 1044.41,-286.377 1065,-260 1083.31,-236.555 1050.85,-156.667 1045,-148 1014.45,-102.771 997.26,-95.2762 947,-74 899.64,-53.9516 765.739,-36.8533 676.872,-27.2601"/>
<polygon fill="black" stroke="black" points="677.121,-23.7669 666.805,-26.1847 676.377,-30.7273 677.121,-23.7669"/>
</g>
<!-- Discover&#45;&gt;Registration -->
<g id="edge44" class="edge"><title>Discover&#45;&gt;Registration</title>
<path fill="none" stroke="black" d="M808.447,-301.486C759.133,-283.285 668.531,-249.949 591,-222 556.581,-209.593 517.787,-195.827 487.619,-185.171"/>
<polygon fill="black" stroke="black" points="488.739,-181.855 478.144,-181.826 486.409,-188.456 488.739,-181.855"/>
</g>
<!-- Discover&#45;&gt;jsonrpc&#45;client -->
<g id="edge50" class="edge"><title>Discover&#45;&gt;jsonrpc&#45;client</title>
<path fill="none" stroke="black" d="M834.892,-296.454C813.583,-257.359 763.965,-166.325 738.964,-120.455"/>
<polygon fill="black" stroke="black" points="742.024,-118.755 734.165,-111.649 735.877,-122.105 742.024,-118.755"/>
</g>
<!-- Discover&#45;&gt;Image -->
<g id="edge42" class="edge"><title>Discover&#45;&gt;Image</title>
<path fill="none" stroke="black" d="M801.444,-304.398C744.604,-290.561 645.548,-266.449 587.358,-252.285"/>
<polygon fill="black" stroke="black" points="587.881,-248.81 577.337,-249.845 586.225,-255.611 587.881,-248.81"/>
</g>
<!-- Discover&#45;&gt;Search -->
<g id="edge46" class="edge"><title>Discover&#45;&gt;Search</title>
<path fill="none" stroke="black" d="M877.796,-300.38C904.537,-288.459 942.414,-271.575 970.946,-258.856"/>
<polygon fill="black" stroke="black" points="972.525,-261.983 980.234,-254.715 969.675,-255.59 972.525,-261.983"/>
</g>
<!-- Discover&#45;&gt;Search&#45;lib -->
<g id="edge54" class="edge"><title>Discover&#45;&gt;Search&#45;lib</title>
<path fill="none" stroke="black" d="M845.633,-296.256C846.49,-270.901 848.026,-225.439 849.029,-195.75"/>
<polygon fill="black" stroke="black" points="852.532,-195.705 849.372,-185.592 845.536,-195.468 852.532,-195.705"/>
</g>
<!-- Geoloc -->
<g id="node40" class="node"><title>Geoloc</title>
<ellipse fill="none" stroke="black" cx="220" cy="-93" rx="44.0472" ry="18.3848"/>
<text text-anchor="middle" x="220" y="-89.4" font-family="Times Roman,serif" font-size="14.00">Geoloc</text>
</g>
<!-- Geoloc&#45;&gt;utils -->
<g id="edge58" class="edge"><title>Geoloc&#45;&gt;utils</title>
<path fill="none" stroke="black" d="M241.915,-76.9431C256.699,-66.1116 276.356,-51.7096 292.373,-39.974"/>
<polygon fill="black" stroke="black" points="294.846,-42.5016 300.844,-33.768 290.708,-36.8549 294.846,-42.5016"/>
</g>
<!-- Geoloc&#45;&gt;jsonrpc&#45;server -->
<g id="edge56" class="edge"><title>Geoloc&#45;&gt;jsonrpc&#45;server</title>
<path fill="none" stroke="black" d="M259.394,-84.6565C275.398,-81.2977 294.073,-77.4177 311,-74 382.378,-59.5885 464.052,-43.728 521.068,-32.7576"/>
<polygon fill="black" stroke="black" points="521.905,-36.161 531.064,-30.8358 520.583,-29.2868 521.905,-36.161"/>
</g>
<!-- Deployment -->
<g id="node49" class="node"><title>Deployment</title>
<ellipse fill="none" stroke="black" cx="620" cy="-389" rx="70.9184" ry="18.3848"/>
<text text-anchor="middle" x="620" y="-385.4" font-family="Times Roman,serif" font-size="14.00">Deployment</text>
</g>
<!-- Rendering -->
<g id="node50" class="node"><title>Rendering</title>
<ellipse fill="none" stroke="black" cx="470" cy="-389" rx="60.8112" ry="18.3848"/>
<text text-anchor="middle" x="470" y="-385.4" font-family="Times Roman,serif" font-size="14.00">Rendering</text>
</g>
<!-- Rendering&#45;&gt;Mail -->
<g id="edge90" class="edge"><title>Rendering&#45;&gt;Mail</title>
<path fill="none" stroke="black" stroke-dasharray="1,5" d="M456.247,-370.946C431.219,-336.933 378.805,-260.101 357,-186 350.853,-165.11 349.511,-140.481 349.621,-121.818"/>
<polygon fill="black" stroke="black" points="353.124,-121.661 349.828,-111.592 346.126,-121.519 353.124,-121.661"/>
</g>
<!-- Rendering&#45;&gt;utils -->
<g id="edge72" class="edge"><title>Rendering&#45;&gt;utils</title>
<path fill="none" stroke="black" d="M411.897,-383.079C286.149,-368.653 0,-326.44 0,-241 0,-241 0,-241 0,-167 0,-120.887 9.41401,-102.069 46,-74 81.9343,-46.4307 210.882,-29.8844 278.67,-22.9002"/>
<polygon fill="black" stroke="black" points="279.402,-26.3444 289.001,-21.8612 278.701,-19.3795 279.402,-26.3444"/>
</g>
<!-- Rendering&#45;&gt;Mail&#45;lib -->
<g id="edge76" class="edge"><title>Rendering&#45;&gt;Mail&#45;lib</title>
<path fill="none" stroke="black" d="M435.018,-373.698C413.893,-363.737 386.912,-349.703 365,-334 270.379,-266.19 175.453,-164.622 133.847,-118.009"/>
<polygon fill="black" stroke="black" points="136.427,-115.644 127.171,-110.488 131.192,-120.291 136.427,-115.644"/>
</g>
<!-- Rendering&#45;&gt;Registration -->
<g id="edge86" class="edge"><title>Rendering&#45;&gt;Registration</title>
<path fill="none" stroke="black" stroke-dasharray="1,5" d="M467.16,-370.454C461.222,-331.686 447.462,-241.842 440.382,-195.613"/>
<polygon fill="black" stroke="black" points="443.83,-195.004 438.856,-185.649 436.91,-196.064 443.83,-195.004"/>
</g>
<!-- Rendering&#45;&gt;jsonrpc&#45;client -->
<g id="edge74" class="edge"><title>Rendering&#45;&gt;jsonrpc&#45;client</title>
<path fill="none" stroke="black" d="M515.772,-376.637C554.682,-365.403 606.748,-348.431 623,-334 687.314,-276.892 711.763,-172.191 720.12,-121.712"/>
<polygon fill="black" stroke="black" points="723.627,-121.936 721.709,-111.516 716.711,-120.858 723.627,-121.936"/>
</g>
<!-- Rendering&#45;&gt;Image -->
<g id="edge82" class="edge"><title>Rendering&#45;&gt;Image</title>
<path fill="none" stroke="black" stroke-dasharray="1,5" d="M478.849,-370.555C491.139,-344.935 513.473,-298.38 527.755,-268.61"/>
<polygon fill="black" stroke="black" points="531.093,-269.743 532.263,-259.213 524.782,-266.715 531.093,-269.743"/>
</g>
<!-- Rendering&#45;&gt;Social -->
<g id="edge78" class="edge"><title>Rendering&#45;&gt;Social</title>
<path fill="none" stroke="black" stroke-dasharray="1,5" d="M494.353,-371.837C509.279,-361.318 528.514,-347.761 544.456,-336.527"/>
<polygon fill="black" stroke="black" points="546.767,-339.18 552.925,-330.558 542.734,-333.458 546.767,-339.18"/>
</g>
<!-- Rendering&#45;&gt;Search -->
<g id="edge88" class="edge"><title>Rendering&#45;&gt;Search</title>
<path fill="none" stroke="black" stroke-dasharray="1,5" d="M513.43,-376.003C522.168,-373.732 531.33,-371.59 540,-370 701.204,-340.431 756.932,-399.885 907,-334 941.172,-318.997 971.883,-288.365 990.921,-266.352"/>
<polygon fill="black" stroke="black" points="993.622,-268.578 997.392,-258.677 988.27,-264.066 993.622,-268.578"/>
</g>
<!-- Rendering&#45;&gt;Discover -->
<g id="edge80" class="edge"><title>Rendering&#45;&gt;Discover</title>
<path fill="none" stroke="black" stroke-dasharray="1,5" d="M514.252,-376.173C522.756,-373.94 531.622,-371.77 540,-370 643.811,-348.068 672.23,-356.122 776,-334 782.061,-332.708 788.379,-331.198 794.624,-329.605"/>
<polygon fill="black" stroke="black" points="795.551,-332.98 804.331,-327.05 793.769,-326.21 795.551,-332.98"/>
</g>
<!-- Rendering&#45;&gt;Geoloc -->
<g id="edge84" class="edge"><title>Rendering&#45;&gt;Geoloc</title>
<path fill="none" stroke="black" stroke-dasharray="1,5" d="M446.52,-371.907C433.11,-361.627 416.36,-347.877 403,-334 334.338,-262.685 267.605,-165.779 237.164,-119.596"/>
<polygon fill="black" stroke="black" points="239.978,-117.505 231.569,-111.059 234.123,-121.341 239.978,-117.505"/>
</g>
</g>
</svg>
